<svg width="51" height="50" viewBox="0 0 51 50" fill="none" xmlns="http://www.w3.org/2000/svg">
<path fill-rule="evenodd" clip-rule="evenodd" d="M41.2189 23.3849H44.4335V16.0713H41.0024V17.2409L40.2388 16.0713H37.2476V17.5502L36.5774 16.0713H31.6327C31.3952 16.0713 31.1633 16.0884 30.9387 16.1227C30.7476 16.152 30.5615 16.1938 30.3821 16.2486C30.2412 16.2916 30.1042 16.3426 29.9722 16.4015C29.8173 16.4712 29.669 16.5515 29.5285 16.6432V16.3917V16.0713H13.3909L12.9515 17.3467L12.5043 16.0713H8.74942V17.5658L8.07178 16.0713H5.00859L3.63892 19.1996V22.7339V23.3849H5.80845L6.21207 22.3352H6.97612L7.38714 23.3849H24.0798V22.3211L24.9158 23.3849H29.5285V23.1509V22.853C29.6476 22.9283 29.7714 22.9942 29.8971 23.0516C30.0232 23.1087 30.1521 23.1574 30.2824 23.1985C30.4436 23.2499 30.6074 23.2887 30.7705 23.3176C31.0368 23.3648 31.3018 23.3849 31.5537 23.3849H34.314L34.7177 22.3352H35.4817L35.8923 23.3849H40.5198V22.2998L41.2189 23.3849ZM46.4656 32.7638V25.9014H46.0908H19.8987L19.2211 26.8386L18.5512 25.9014H10.9112V33.2143H18.5221L19.1853 32.2631L19.8699 33.2143H24.634V31.6365H24.5838C25.1762 31.6365 25.7145 31.5318 26.1913 31.3587V33.2143H29.5137V32.1509L30.3498 33.2143H44.7647C45.1796 33.2143 45.5684 33.1455 45.9172 33.0218C46.1133 32.9522 46.2971 32.8654 46.4656 32.7638Z" fill="white"/>
<mask id="mask0_1479_2946" style="mask-type:alpha" maskUnits="userSpaceOnUse" x="12" y="27" width="35" height="6">
<path d="M46.496 32.0262V27.0938H12.0869V32.0262H46.496Z" fill="white"/>
</mask>
<g mask="url(#mask0_1479_2946)">
<path fill-rule="evenodd" clip-rule="evenodd" d="M44.7949 31.0398H42.2074V32.0264H44.7584C45.8474 32.0264 46.4958 31.3781 46.4958 30.455C46.4958 29.5742 45.912 29.0602 44.9319 29.0602H43.7643C43.4755 29.0602 43.2742 28.8768 43.2742 28.588C43.2742 28.292 43.4755 28.0949 43.7643 28.0949H45.9548L46.4024 27.0942H43.8001C42.7114 27.0942 42.063 27.7426 42.063 28.6302C42.063 29.5392 42.676 30.0605 43.6347 30.0605H44.7949C45.083 30.0605 45.292 30.2435 45.292 30.5399C45.292 30.8424 45.083 31.0398 44.7949 31.0398ZM39.9946 31.0398H37.4075V32.0264H39.9584C41.0471 32.0264 41.6959 31.3781 41.6959 30.455C41.6959 29.5742 41.1121 29.0602 40.1316 29.0602H38.964C38.6756 29.0602 38.4739 28.8768 38.4739 28.588C38.4739 28.292 38.6756 28.0949 38.964 28.0949H41.1549L41.6021 27.0942H38.9998C37.9115 27.0942 37.2627 27.7426 37.2627 28.6302C37.2627 29.5392 37.8757 30.0605 38.8344 30.0605H39.9946C40.2827 30.0605 40.4917 30.2435 40.4917 30.5399C40.4917 30.8424 40.2827 31.0398 39.9946 31.0398ZM36.6722 28.0949V27.0942H32.636V32.0264H36.6722V31.0326H33.8469V30.0396H36.6072V29.053H33.8469V28.0949H36.6722ZM29.9114 28.1018C30.3438 28.1018 30.5747 28.3765 30.5747 28.7151C30.5747 29.053 30.3438 29.3204 29.9114 29.3204H28.4915V28.1018H29.9114ZM28.4915 30.2507H29.061L30.5673 32.0264H32.0736L30.3944 30.2085C31.2523 30.0533 31.7637 29.4475 31.7637 28.6584C31.7637 27.7354 31.0935 27.0942 30.0196 27.0942H27.2807V32.0264H28.4915V30.2507ZM25.4065 28.7497C25.4065 29.0815 25.1905 29.3558 24.7651 29.3558H23.3164V28.1444H24.7651C25.1905 28.1444 25.4065 28.4118 25.4065 28.7497ZM22.1055 27.0942V32.0264H23.3164V30.3984H24.8371C25.9402 30.3984 26.6244 29.6941 26.6244 28.7429C26.6244 27.7639 25.9546 27.0942 24.8803 27.0942H22.1055ZM20.3252 32.0264H21.8389L19.8134 29.5392L21.8245 27.0942H20.3544L19.1143 28.6584L17.8821 27.0942H16.3684L18.3865 29.5601L16.3754 32.0264H17.8459L19.0855 30.441L20.3252 32.0264ZM16.1232 28.0949V27.0942H12.0869V32.0264H16.1232V31.0326H13.2982V30.0396H16.0586V29.053H13.2982V28.0949H16.1232Z" fill="#006FCF"/>
</g>
<path fill-rule="evenodd" clip-rule="evenodd" d="M39.5389 19.2437L39.5245 18.8351L39.7768 19.2437L41.7081 22.1959H43.1214V17.2637H41.9393V20.1173L41.9537 20.4837L41.7303 20.1173L39.8414 17.2637H38.3573V22.1959H39.5389V19.2437ZM34.7102 19.1029L35.0777 18.1799L35.4447 19.1029L35.8923 20.1949H34.2704L34.7102 19.1029ZM36.7136 22.1959H38.0755L35.9211 17.2637H34.3276L32.1659 22.1959H33.4558L33.8812 21.1389H36.2811L36.7136 22.1959ZM31.4306 22.1959H31.4956L31.9927 21.1461H31.6252C30.7962 21.1461 30.3062 20.6389 30.3062 19.7653V19.695C30.3062 18.9127 30.7456 18.3279 31.6108 18.3279H32.9225V17.2637H31.51C29.9531 17.2637 29.1027 18.2856 29.1027 19.6877V19.7722C29.1027 21.2378 29.9749 22.189 31.4306 22.1959ZM27.1278 22.1959H28.3386V20.0252V17.2637H27.1278V19.9971V22.1959ZM24.5834 18.2716C25.0158 18.2716 25.2466 18.5463 25.2466 18.8845C25.2466 19.2228 25.0158 19.4903 24.5834 19.4903H23.1635V18.2716H24.5834ZM23.1635 20.4205H23.733L25.2396 22.1959H26.7459L25.0664 20.3779C25.9243 20.2231 26.4361 19.617 26.4361 18.8282C26.4361 17.9052 25.7655 17.2637 24.6916 17.2637H21.9526V22.1959H23.1635V20.4205ZM21.0664 18.2643V17.2637H17.0301V22.1959H21.0664V21.1884H18.241V20.209H21.0014V19.2228H18.241V18.2643H21.0664ZM11.0264 18.8282L10.9972 17.4965L12.3956 22.1959H13.4913L14.8894 17.5247L14.8606 18.821V22.1959H16.0353V17.2637H13.9019L12.9433 20.7584L11.9776 17.2637H9.85129V22.1959H11.0264V18.8282ZM6.20427 19.1029L6.57208 18.1799L6.93951 19.1029L7.38634 20.1949H5.76483L6.20427 19.1029ZM8.20799 22.1959H9.57027L7.41514 17.2637H5.82244L3.65991 22.1959H4.95019L5.37561 21.1389H7.77556L8.20799 22.1959Z" fill="#006FCF"/>
</svg>
