<svg width="51" height="50" viewBox="0 0 51 50" fill="none" xmlns="http://www.w3.org/2000/svg">
<path fill-rule="evenodd" clip-rule="evenodd" d="M46.4961 30.016V30.7656H46.3913V30.1991L46.2303 30.6882H46.1208L45.9598 30.2003V30.7656H45.854V30.016H46.0038L46.1751 30.5309L46.3473 30.016H46.4961ZM45.5504 30.1438V30.7656H45.4456V30.1438H45.2546V30.0172H45.7414V30.1438H45.5504Z" fill="#F79410"/>
<path d="M31.0467 32.5885H19.3765V11.7627H31.0467V32.5885Z" fill="#FF5F00"/>
<path d="M20.1246 22.1732C20.1246 17.9486 22.1166 14.1855 25.2187 11.7603C22.9502 9.98695 20.0873 8.92849 16.9759 8.92849C9.60989 8.92849 3.63892 14.8583 3.63892 22.1732C3.63892 29.4882 9.60989 35.418 16.9759 35.418C20.0873 35.418 22.9502 34.3595 25.2187 32.5861C22.1166 30.161 20.1246 26.3978 20.1246 22.1732Z" fill="#EB001B"/>
<path d="M46.3189 22.4017C46.3189 29.7167 40.348 35.6465 32.982 35.6465C29.8706 35.6465 27.0076 34.588 24.7383 32.8146C27.8412 30.3895 29.8332 26.6264 29.8332 22.4017C29.8332 18.1771 27.8412 14.414 24.7383 11.9888C27.0076 10.2155 29.8706 9.157 32.982 9.157C40.348 9.157 46.3189 15.0868 46.3189 22.4017Z" fill="#F79E1B"/>
<path fill-rule="evenodd" clip-rule="evenodd" d="M45.0941 41.8801C45.05 41.8616 45.0042 41.8523 44.9541 41.8523C44.9033 41.8523 44.8566 41.8616 44.8125 41.8801C44.7684 41.8978 44.7303 41.9231 44.698 41.9551C44.6658 41.9862 44.6404 42.0233 44.6217 42.0662C44.6031 42.1083 44.5937 42.1538 44.5937 42.2018C44.5937 42.2498 44.6031 42.2953 44.6217 42.3374C44.6404 42.3795 44.6658 42.4165 44.698 42.4485C44.7303 42.4797 44.7684 42.5049 44.8125 42.5235C44.8566 42.542 44.9033 42.5512 44.9541 42.5512C45.0042 42.5512 45.05 42.542 45.0941 42.5235C45.1373 42.5049 45.1746 42.4797 45.2077 42.4485C45.2399 42.4165 45.2654 42.3795 45.284 42.3374C45.3027 42.2953 45.312 42.2498 45.312 42.2018C45.312 42.1538 45.3027 42.1083 45.284 42.0662C45.2654 42.0233 45.2399 41.9862 45.2077 41.9551C45.1746 41.9231 45.1373 41.8978 45.0941 41.8801ZM44.954 42.4737C44.9922 42.4737 45.0278 42.4661 45.06 42.4518C45.0931 42.4375 45.1219 42.4181 45.1465 42.3937C45.1711 42.3693 45.1906 42.3406 45.205 42.307C45.2186 42.2741 45.2262 42.2387 45.2262 42.2009C45.2262 42.163 45.2186 42.1276 45.205 42.0948C45.1906 42.0619 45.1711 42.0324 45.1465 42.008C45.1219 41.9836 45.0931 41.9642 45.06 41.9499C45.0278 41.9364 44.9922 41.9297 44.954 41.9297C44.9158 41.9297 44.8794 41.9364 44.8463 41.9499C44.8124 41.9642 44.7827 41.9836 44.7581 42.008C44.7335 42.0324 44.714 42.0619 44.7004 42.0948C44.686 42.1276 44.6792 42.163 44.6792 42.2009C44.6792 42.2387 44.686 42.2741 44.7004 42.307C44.714 42.3406 44.7335 42.3693 44.7581 42.3937C44.7827 42.4181 44.8124 42.4375 44.8463 42.4518C44.8794 42.4661 44.9158 42.4737 44.954 42.4737ZM45.0726 42.0642C45.0497 42.0457 45.0174 42.0364 44.9759 42.0364H44.8249V42.3606H44.8945V42.2394H44.9267L45.0259 42.3606H45.109L45.0022 42.2385C45.0361 42.2343 45.0615 42.2234 45.0793 42.2065C45.098 42.1889 45.1065 42.167 45.1065 42.14C45.1065 42.108 45.0955 42.0828 45.0726 42.0642ZM44.8929 42.1855V42.0988H44.9735C44.9913 42.0988 45.0066 42.1021 45.0176 42.1097C45.0278 42.1164 45.0337 42.1274 45.0337 42.1417C45.0337 42.156 45.0278 42.1678 45.0176 42.1745C45.0066 42.1813 44.9913 42.1855 44.9735 42.1855H44.8929ZM11.9126 40.6036C11.9126 39.9855 12.3205 39.4778 12.987 39.4778C13.6239 39.4778 14.0539 39.9636 14.0539 40.6036C14.0539 41.2436 13.6239 41.7294 12.987 41.7294C12.3205 41.7294 11.9126 41.2217 11.9126 40.6036ZM14.7803 38.8443V42.3607H14.0103V41.9338C13.7661 42.2504 13.3955 42.4491 12.8918 42.4491C11.8987 42.4491 11.1202 41.6769 11.1202 40.6025C11.1202 39.5289 11.8987 38.7558 12.8918 38.7558C13.3955 38.7558 13.7661 38.9546 14.0103 39.2712V38.8443H14.7803ZM40.8024 40.6036C40.8024 39.9855 41.2103 39.4778 41.8769 39.4778C42.5146 39.4778 42.9437 39.9636 42.9437 40.6036C42.9437 41.2436 42.5146 41.7294 41.8769 41.7294C41.2103 41.7294 40.8024 41.2217 40.8024 40.6036ZM43.6712 37.4321V42.3607H42.9004V41.9338C42.6561 42.2504 42.2855 42.4491 41.7818 42.4491C40.7888 42.4491 40.0103 41.6769 40.0103 40.6025C40.0103 39.5289 40.7888 38.7558 41.7818 38.7558C42.2855 38.7558 42.6561 38.9546 42.9004 39.2712V37.4321H43.6712ZM24.3387 39.4414C24.8348 39.4414 25.1537 39.7504 25.2351 40.2944H23.3974C23.4797 39.7866 23.79 39.4414 24.3387 39.4414ZM22.5904 40.6025C22.5904 39.5061 23.3163 38.7558 24.3543 38.7558C25.3465 38.7558 26.0283 39.5061 26.0359 40.6025C26.0359 40.7052 26.0283 40.8012 26.0206 40.8964H23.3909C23.502 41.5296 23.954 41.7578 24.4501 41.7578C24.8054 41.7578 25.1836 41.6247 25.4804 41.3898L25.8578 41.9565C25.4279 42.3169 24.9394 42.4491 24.406 42.4491C23.346 42.4491 22.5904 41.7207 22.5904 40.6025ZM33.6513 40.6036C33.6513 39.9855 34.0592 39.4778 34.7257 39.4778C35.3626 39.4778 35.7926 39.9636 35.7926 40.6036C35.7926 41.2436 35.3626 41.7294 34.7257 41.7294C34.0592 41.7294 33.6513 41.2217 33.6513 40.6036ZM36.5186 38.8443V42.3607H35.7486V41.9338C35.5035 42.2504 35.1337 42.4491 34.63 42.4491C33.637 42.4491 32.8585 41.6769 32.8585 40.6025C32.8585 39.5289 33.637 38.7558 34.63 38.7558C35.1337 38.7558 35.5035 38.9546 35.7486 39.2712V38.8443H36.5186ZM29.3026 40.6025C29.3026 41.6694 30.0506 42.4491 31.192 42.4491C31.7254 42.4491 32.0807 42.3312 32.4657 42.0298L32.096 41.4117C31.8068 41.618 31.5032 41.7283 31.1691 41.7283C30.5543 41.7207 30.1023 41.2795 30.1023 40.6025C30.1023 39.9255 30.5543 39.4842 31.1691 39.4766C31.5032 39.4766 31.8068 39.587 32.096 39.7933L32.4657 39.1752C32.0807 38.8737 31.7254 38.7558 31.192 38.7558C30.0506 38.7558 29.3026 39.5356 29.3026 40.6025ZM38.2976 39.2704C38.4977 38.9614 38.7869 38.7551 39.2313 38.7551C39.3873 38.7551 39.6095 38.7846 39.78 38.8511L39.5425 39.5719C39.3797 39.5054 39.2169 39.4835 39.0608 39.4835C38.5571 39.4835 38.3052 39.8068 38.3052 40.3887V42.36H37.5344V38.8435H38.2976V39.2704ZM18.5884 39.1238C18.2179 38.8813 17.7073 38.7558 17.1442 38.7558C16.247 38.7558 15.6695 39.1828 15.6695 39.8817C15.6695 40.4551 16.0995 40.8088 16.8915 40.9191L17.2553 40.9705C17.6777 41.0294 17.8769 41.1397 17.8769 41.3384C17.8769 41.6104 17.5954 41.7654 17.0696 41.7654C16.5362 41.7654 16.1512 41.5961 15.8917 41.3974L15.5288 41.9927C15.9511 42.3018 16.4845 42.4491 17.062 42.4491C18.0847 42.4491 18.6775 41.9708 18.6775 41.3014C18.6775 40.6833 18.2111 40.36 17.4402 40.2497L17.0773 40.1975C16.744 40.1537 16.4768 40.088 16.4768 39.8522C16.4768 39.5945 16.7287 39.4404 17.151 39.4404C17.603 39.4404 18.0406 39.6097 18.2552 39.7419L18.5884 39.1238ZM27.5925 39.2704C27.7918 38.9614 28.081 38.7551 28.5254 38.7551C28.6814 38.7551 28.9036 38.7846 29.074 38.8511L28.8366 39.5719C28.6738 39.5054 28.511 39.4835 28.3549 39.4835C27.8512 39.4835 27.5993 39.8068 27.5993 40.3887V42.36H26.8293V38.8435H27.5925V39.2704ZM21.953 38.8443H20.6937V37.7774H19.9152V38.8443H19.1969V39.5432H19.9152V41.1473C19.9152 41.9632 20.234 42.4491 21.1448 42.4491C21.4789 42.4491 21.8639 42.3464 22.1082 42.1771L21.886 41.522C21.6562 41.6542 21.4043 41.7207 21.2042 41.7207C20.8192 41.7207 20.6937 41.485 20.6937 41.1321V39.5432H21.953V38.8443ZM10.4395 40.1529V42.36H9.661V40.403C9.661 39.8068 9.40914 39.4759 8.88336 39.4759C8.372 39.4759 8.01668 39.8001 8.01668 40.4106V42.36H7.23819V40.403C7.23819 39.8068 6.97954 39.4759 6.46817 39.4759C5.94155 39.4759 5.60064 39.8001 5.60064 40.4106V42.36H4.823V38.8435H5.59386V39.2772C5.88303 38.8654 6.25278 38.7551 6.631 38.7551C7.17204 38.7551 7.55704 38.9909 7.80128 39.3807C8.12777 38.8873 8.59418 38.7475 9.04618 38.7551C9.90609 38.7627 10.4395 39.3218 10.4395 40.1529Z" fill="#0D0D19"/>
</svg>
