<svg width="51" height="50" viewBox="0 0 51 50" fill="none" xmlns="http://www.w3.org/2000/svg">
<path d="M25.2884 15.2223L25.2884 15.2221C25.4949 14.3703 25.3291 13.5569 24.8475 12.9519C24.3663 12.3475 23.6092 12 22.7289 12H12.0319C10.3092 12 8.6118 13.3223 8.20836 14.9865L3.22616 35.4946C3.22614 35.4946 3.22613 35.4946 3.22612 35.4947C3.01934 36.3449 3.1863 37.1573 3.66802 37.7616C4.14921 38.3652 4.90599 38.713 5.78558 38.713H16.4815C18.2034 38.713 19.9009 37.39 20.3079 35.7319L20.3082 35.7307L25.2884 15.2223Z" fill="white" stroke="white"/>
<path d="M30.1149 35.7307L30.1147 35.7313C30.0542 35.9793 30.0093 36.2132 29.9643 36.4472C29.9468 36.5383 29.9293 36.6294 29.9109 36.7214C29.8483 37.0339 29.7743 37.3599 29.6498 37.6481C29.5214 37.9455 29.3287 38.2282 29.0158 38.429C28.7062 38.6276 28.3299 38.7131 27.8925 38.7131H15.5912C14.7096 38.7131 13.9523 38.3655 13.4718 37.761C12.9909 37.1562 12.8267 36.3436 13.035 35.4942C13.0351 35.494 13.0351 35.4938 13.0352 35.4936L18.0141 14.9863L18.0144 14.9849C18.4233 13.323 20.116 12 21.8386 12H34.1399C34.5574 12 34.9531 12.0777 35.2334 12.3393C35.5308 12.6167 35.5814 12.9876 35.565 13.2904C35.5487 13.5893 35.4624 13.9198 35.374 14.2288C35.347 14.323 35.3195 14.4164 35.2919 14.5099C35.2234 14.7423 35.1547 14.9753 35.0943 15.2223L30.1149 35.7307ZM30.1149 35.7307L35.0941 15.223L30.1149 35.7307Z" fill="white" stroke="white"/>
<path d="M41.9273 35.7307L41.927 35.7319C41.52 37.3902 39.8213 38.7131 38.0989 38.7131H27.4069C26.5253 38.7131 25.7677 38.3655 25.2865 37.7614C24.8049 37.1567 24.6397 36.3442 24.8474 35.4946C24.8475 35.4943 24.8475 35.4941 24.8476 35.4939L29.8276 14.9865C29.8276 14.9865 29.8276 14.9864 29.8276 14.9863C30.2311 13.3222 31.9274 12 33.6511 12H44.3481C45.2292 12 45.9869 12.3473 46.4682 12.952C46.9498 13.5572 47.1147 14.3706 46.9068 15.2223L41.9273 35.7307ZM41.9273 35.7307L46.9066 15.223L41.9273 35.7307Z" fill="white" stroke="white"/>
<path d="M12.0319 12.5H22.7289C24.2221 12.5 25.1508 13.6674 24.8025 15.1043L19.8223 35.6127C19.4708 37.0447 17.9758 38.213 16.4815 38.213H5.78558C4.29446 38.213 3.36365 37.0447 3.71199 35.6127L8.69429 15.1043C9.04263 13.6674 10.5369 12.5 12.0319 12.5Z" fill="#E21836"/>
<path d="M21.8386 12.5H34.1399C35.6328 12.5 34.9596 13.6674 34.6084 15.1043L29.629 35.6127C29.2796 37.0447 29.3886 38.2131 27.8925 38.2131H15.5912C14.0952 38.2131 13.1693 37.0447 13.5208 35.6127L18.4999 15.1043C18.8535 13.6674 20.3446 12.5 21.8386 12.5Z" fill="#00447C"/>
<path d="M33.6511 12.5H44.3481C45.8434 12.5 46.7721 13.6674 46.4209 15.1043L41.4415 35.6127C41.09 37.0447 39.5939 38.2131 38.0989 38.2131H27.4069C25.9108 38.2131 24.9828 37.0447 25.3333 35.6127L30.3135 15.1043C30.6618 13.6674 32.155 12.5 33.6511 12.5Z" fill="#007B84"/>
<path d="M14.8256 19.0719C13.7256 19.0826 13.4007 19.0719 13.2969 19.0483C13.257 19.2302 12.5147 22.5144 12.5126 22.5172C12.3528 23.1816 12.2365 23.6553 11.8415 23.9611C11.6173 24.1389 11.3555 24.2247 11.052 24.2247C10.5642 24.2247 10.28 23.9924 10.2323 23.5518L10.2232 23.4005C10.2232 23.4005 10.3718 22.5104 10.3718 22.5054C10.3718 22.5054 11.1508 19.5125 11.2903 19.1169C11.2976 19.0944 11.2997 19.0826 11.3015 19.0719C9.78513 19.0846 9.51632 19.0719 9.49781 19.0483C9.48764 19.0806 9.45009 19.2662 9.45009 19.2662L8.6546 22.6395L8.58629 22.9256L8.4541 23.8614C8.4541 24.1389 8.51094 24.3655 8.6241 24.5571C8.98651 25.1645 10.0203 25.2555 10.6051 25.2555C11.3586 25.2555 12.0655 25.102 12.5431 24.8217C13.3723 24.3518 13.5892 23.6173 13.7827 22.9646L13.8723 22.6297C13.8723 22.6297 14.6749 19.5212 14.8112 19.1169C14.8165 19.0944 14.8185 19.0826 14.8256 19.0719ZM17.5561 21.5795C17.3627 21.5795 17.0091 21.6245 16.6915 21.7738C16.5763 21.8306 16.4673 21.8961 16.3523 21.9614L16.4561 21.602L16.3993 21.5415C15.7258 21.6723 15.5751 21.6898 14.953 21.7738L14.9009 21.8071C14.8286 22.3815 14.7645 22.8134 14.4967 23.9425C14.3948 24.3586 14.2889 24.7787 14.1828 25.1939L14.2115 25.2466C14.849 25.2144 15.0424 25.2144 15.5965 25.2231L15.6413 25.1764C15.7117 24.8305 15.7208 24.7495 15.8768 24.049C15.95 23.7169 16.1028 22.9872 16.1782 22.7274C16.3166 22.6658 16.4532 22.6053 16.5836 22.6053C16.8941 22.6053 16.8563 22.8651 16.8443 22.9687C16.831 23.1425 16.7179 23.7102 16.6019 24.1976L16.5244 24.5122C16.4704 24.7445 16.4113 24.9703 16.3573 25.2006L16.3808 25.2466C17.0091 25.2144 17.2008 25.2144 17.7373 25.2231L17.8004 25.1764C17.8974 24.6362 17.9258 24.4917 18.0979 23.7052L18.1845 23.3438C18.3527 22.6366 18.4371 22.278 18.3099 21.9859C18.1754 21.6585 17.8526 21.5795 17.5561 21.5795ZM20.6065 22.3199C20.2725 22.3815 20.0595 22.4225 19.8477 22.449C19.6379 22.4812 19.4332 22.5105 19.1104 22.5535L19.0848 22.5758L19.0614 22.5935C19.0277 22.8241 19.0043 23.0234 18.9597 23.2577C18.9219 23.5001 18.8637 23.7754 18.7691 24.171C18.6958 24.4739 18.658 24.5794 18.6163 24.6859C18.5756 24.7925 18.5308 24.896 18.4484 25.1938L18.4677 25.2214L18.4839 25.2466C18.7855 25.2329 18.9829 25.2231 19.1858 25.2214C19.3883 25.2144 19.5982 25.2214 19.9231 25.2231L19.9515 25.2009L19.982 25.1763C20.029 24.9078 20.036 24.8355 20.0647 24.7044C20.0931 24.5639 20.1421 24.3693 20.2623 23.8497C20.3191 23.6056 20.3825 23.3623 20.4414 23.1132C20.5027 22.8651 20.5668 22.6208 20.6279 22.3767L20.6187 22.3472L20.6065 22.3199ZM20.6136 21.3216C20.3101 21.1498 19.7774 21.2043 19.4189 21.4416C19.0615 21.6742 19.0208 22.0043 19.3232 22.1784C19.6215 22.3454 20.1563 22.2956 20.5116 22.0563C20.8683 21.8187 20.9129 21.4916 20.6136 21.3216ZM22.449 25.3005C23.063 25.3005 23.6924 25.1382 24.1662 24.6565C24.5307 24.2659 24.6978 23.6847 24.7557 23.4454C24.9442 22.6521 24.7974 22.2818 24.6131 22.0562C24.333 21.7123 23.8382 21.602 23.3248 21.602C23.0161 21.602 22.2808 21.6313 21.7064 22.1392C21.294 22.5056 21.1034 23.0027 20.9884 23.4794C20.8724 23.965 20.7389 24.8393 21.5771 25.1647C21.8358 25.2712 22.2086 25.3005 22.449 25.3005ZM22.401 23.5156C22.5426 22.915 22.7097 22.4108 23.1363 22.4108C23.4705 22.4108 23.4948 22.7859 23.3462 23.3886C23.3196 23.5224 23.1976 24.0198 23.0325 24.2316C22.9173 24.3879 22.7809 24.4827 22.6302 24.4827C22.5854 24.4827 22.3186 24.4827 22.3145 24.1028C22.3124 23.9153 22.3523 23.7237 22.401 23.5156ZM26.2906 25.2232L26.3386 25.1764C26.4066 24.8306 26.4178 24.7493 26.5685 24.0491C26.6439 23.717 26.7998 22.9873 26.8731 22.7274C27.0118 22.6657 27.1461 22.6051 27.2806 22.6051C27.589 22.6051 27.5515 22.865 27.5392 22.9685C27.528 23.1426 27.4149 23.71 27.2968 24.1974L27.2235 24.512C27.1674 24.7446 27.1064 24.9701 27.0525 25.2007L27.0759 25.2467C27.7064 25.2145 27.8907 25.2145 28.4304 25.2232L28.4956 25.1764C28.5903 24.636 28.6158 24.4915 28.7931 23.7052L28.8776 23.3436C29.0465 22.6364 29.1321 22.278 29.0069 21.9859C28.8685 21.6586 28.5436 21.5796 28.2513 21.5796C28.0576 21.5796 27.7022 21.6243 27.3865 21.7739C27.2736 21.8306 27.1604 21.8959 27.0493 21.9614L27.1461 21.6021L27.0942 21.5413C26.421 21.6723 26.2671 21.6898 25.6458 21.7739L25.5981 21.8071C25.5228 22.3816 25.4615 22.8132 25.1937 23.9426C25.0918 24.3587 24.9859 24.7788 24.8801 25.1939L24.9085 25.2467C25.547 25.2145 25.7376 25.2145 26.2906 25.2232ZM30.9226 25.2466C30.9622 25.061 31.1977 23.9612 31.1998 23.9612C31.1998 23.9612 31.4003 23.1542 31.4125 23.1249C31.4125 23.1249 31.4756 23.0409 31.5387 23.0076H31.6315C32.5073 23.0076 33.4963 23.0076 34.2714 22.4607C34.7989 22.0856 35.1595 21.5317 35.3204 20.8585C35.3621 20.6934 35.3928 20.4971 35.3928 20.3008C35.3928 20.043 35.3389 19.7879 35.183 19.5886C34.7877 19.0582 34.0005 19.0484 33.0919 19.0444C33.089 19.0444 32.644 19.0484 32.644 19.0484C31.4808 19.0622 31.0144 19.0582 30.8228 19.0356C30.8066 19.1169 30.7761 19.2615 30.7761 19.2615C30.7761 19.2615 30.3594 21.1135 30.3594 21.1165C30.3594 21.1165 29.3624 25.0543 29.3155 25.2398C30.331 25.2281 30.7474 25.2281 30.9226 25.2466ZM31.6946 21.9566C31.6946 21.9566 32.1376 20.1082 32.1355 20.1152L32.1499 20.0205L32.1561 19.9482L32.3332 19.9657C32.3332 19.9657 33.2468 20.041 33.2682 20.043C33.6287 20.1768 33.7774 20.5216 33.6736 20.9718C33.5789 21.3831 33.3007 21.729 32.9433 21.896C32.6489 22.0376 32.2883 22.0493 31.9168 22.0493H31.6764L31.6946 21.9566ZM34.4528 23.5499C34.3357 24.0285 34.2012 24.9028 35.0352 25.2144C35.3012 25.3229 35.5395 25.3552 35.7817 25.3434C36.0375 25.3302 36.2745 25.2072 36.494 25.0301C36.4742 25.1029 36.4544 25.1756 36.4346 25.2487L36.4724 25.2954C37.0723 25.2712 37.2585 25.2712 37.9085 25.2759L37.9674 25.2329C38.0623 24.6977 38.1517 24.1781 38.3984 23.1543C38.5186 22.6639 38.6385 22.1782 38.7619 21.6898L38.7426 21.636C38.0714 21.7553 37.8921 21.7808 37.2465 21.8686L37.1975 21.9069C37.1909 21.9566 37.1842 22.0044 37.1779 22.0522C37.0775 21.8966 36.932 21.7638 36.7076 21.681C36.4205 21.5728 35.7462 21.7123 35.1666 22.2185C34.7594 22.5798 34.5638 23.075 34.4528 23.5499ZM35.8623 23.5791C36.0059 22.9892 36.171 22.4901 36.5986 22.4901C36.8689 22.4901 37.0113 22.7294 36.9824 23.1375C36.9594 23.2393 36.9347 23.3466 36.9052 23.4679C36.8624 23.6432 36.816 23.817 36.7709 23.991C36.725 24.1101 36.6716 24.2223 36.6129 24.2971C36.5029 24.4467 36.2411 24.5394 36.0904 24.5394C36.0476 24.5394 35.7838 24.5394 35.7747 24.1663C35.7726 23.9805 35.8125 23.7892 35.8623 23.5791ZM43.2228 21.6313L43.1709 21.5745C42.5069 21.7035 42.3867 21.724 41.7766 21.8031L41.7317 21.8461C41.7296 21.8531 41.7278 21.8638 41.7247 21.8736L41.7226 21.8638C41.2684 22.8689 41.2817 22.6521 40.912 23.4433C40.9099 23.4073 40.9099 23.3848 40.9078 23.3465L40.8152 21.6313L40.7571 21.5745C40.0615 21.7035 40.045 21.724 39.4026 21.8031L39.3525 21.8461C39.3455 21.8666 39.3455 21.8891 39.3413 21.9136L39.3455 21.9223C39.4258 22.316 39.4065 22.2282 39.4871 22.8494C39.5246 23.1542 39.5747 23.4608 39.6122 23.7619C39.6756 24.2658 39.711 24.5139 39.7885 25.2829C39.3546 25.9696 39.2519 26.2294 38.8342 26.8321L38.8371 26.8381L38.543 27.2843C38.5093 27.3313 38.4788 27.3636 38.4361 27.3773C38.3891 27.3996 38.3281 27.4036 38.2434 27.4036H38.0804L37.8382 28.1763L38.6692 28.1901C39.157 28.1881 39.4636 27.9692 39.6286 27.6751L40.1512 26.8164H40.1428L40.1978 26.7559C40.5493 26.0301 43.2228 21.6313 43.2228 21.6313ZM34.4527 31.7801H34.1002L35.4049 27.641H35.8377L35.9751 27.2146L35.9884 27.6888C35.9723 27.9819 36.2127 28.2417 36.8442 28.1987H37.5745L37.8258 27.4017H37.551C37.393 27.4017 37.3197 27.3634 37.3288 27.2814L37.3156 26.799H35.9631V26.8015C35.5259 26.8103 34.2202 26.8418 33.9558 26.9093C33.6359 26.9883 33.2987 27.2209 33.2987 27.2209L33.4312 26.794H32.1661L31.9025 27.641L30.5804 31.8433H30.3238L30.0722 32.6346H32.5919L32.5074 32.8984H33.749L33.8314 32.6346H34.1797L34.4527 31.7801ZM33.4189 28.482C33.2163 28.5358 32.8393 28.6988 32.8393 28.6988L33.1746 27.641H34.1797L33.9373 28.4118C33.9373 28.4118 33.6267 28.4293 33.4189 28.482ZM33.4382 29.9932C33.4382 29.9932 33.1225 30.0313 32.9147 30.0763C32.71 30.1358 32.3262 30.3234 32.3262 30.3234L32.6725 29.2225H33.6828L33.4382 29.9932ZM32.875 31.7898H31.8668L32.1591 30.8608H33.1642L32.875 31.7898ZM35.3031 29.2225H36.7564L36.5476 29.8712H35.075L34.8539 30.5804H36.1424L35.1668 31.8981C35.0985 31.9949 35.0372 32.0291 34.9691 32.0564C34.9008 32.0897 34.8111 32.1287 34.7074 32.1287H34.3499L34.1043 32.9054H35.0393C35.5253 32.9054 35.8123 32.6933 36.0243 32.415L36.6933 31.5367L36.837 32.4285C36.8675 32.5956 36.9927 32.6933 37.0774 32.7314C37.171 32.7764 37.2677 32.8536 37.4044 32.8651C37.5509 32.8712 37.6567 32.8759 37.7271 32.8759H38.1865L38.4624 32.0066H38.2812C38.1772 32.0066 37.998 31.9899 37.9675 31.9586C37.937 31.9206 37.937 31.8621 37.9206 31.7731L37.7749 30.8793H37.178L37.4398 30.5804H38.9096L39.1356 29.8712H37.7749L37.9868 29.2225H39.3434L39.595 28.4225H35.5506L35.3031 29.2225ZM23.0284 31.9704L23.3676 30.8881H24.7617L25.0165 30.0831H23.621L23.8341 29.4169H25.1977L25.4503 28.6374H22.0384L21.791 29.4169H22.5661L22.3594 30.0831H21.5821L21.3245 30.9019H22.0994L21.6473 32.3338C21.5863 32.5234 21.676 32.5956 21.7328 32.6837C21.791 32.7694 21.8499 32.8262 21.9823 32.8585C22.119 32.8877 22.2126 32.9052 22.3398 32.9052H23.9115L24.1915 32.0135L23.4948 32.1052C23.3603 32.1052 22.9877 32.0897 23.0284 31.9704ZM23.1883 26.7891L22.835 27.4016C22.7594 27.5354 22.6914 27.6184 22.6301 27.6566C22.5761 27.6889 22.4692 27.7024 22.3143 27.7024H22.13L21.8836 28.4859H22.4958C22.7902 28.4859 23.0162 28.3824 23.1242 28.3306C23.2402 28.2711 23.2707 28.3051 23.3604 28.2221L23.5671 28.0503H25.4788L25.7325 27.2345H24.3332L24.5775 26.7891H23.1883ZM26.0106 31.9862C25.978 31.9412 26.0014 31.8619 26.0512 31.6968L26.5737 30.0381H28.4325C28.7034 30.0343 28.8989 30.0313 29.0262 30.0226C29.1628 30.0088 29.3114 29.962 29.4733 29.878C29.6404 29.79 29.726 29.6972 29.7982 29.5907C29.8788 29.4844 30.0081 29.2518 30.1192 28.8932L30.7759 26.794L28.847 26.8048C28.847 26.8048 28.2531 26.8888 27.9916 26.9816C27.7277 27.0851 27.3507 27.3742 27.3507 27.3742L27.5249 26.7988H26.3333L24.6652 32.1052C24.606 32.3113 24.5664 32.4608 24.5572 32.5506C24.5541 32.6474 24.6845 32.7432 24.769 32.8154C24.8688 32.8877 25.0164 32.876 25.158 32.8877C25.3068 32.8985 25.5186 32.9052 25.8108 32.9052H26.7265L27.0076 31.9949L26.1879 32.0692C26.1003 32.0692 26.0369 32.0242 26.0106 31.9862ZM26.9109 28.9177H28.8632L28.7391 29.2908C28.7216 29.2996 28.6799 29.2723 28.4812 29.2948H26.7907L26.9109 28.9177ZM27.302 27.6663H29.2707L29.1292 28.1157C29.1292 28.1157 28.2012 28.107 28.0526 28.1332C27.3987 28.2418 27.0167 28.5769 27.0167 28.5769L27.302 27.6663ZM28.7828 30.5403C28.7666 30.5961 28.7411 30.6301 28.7054 30.6556C28.6657 30.6801 28.6016 30.6888 28.5059 30.6888H28.2277L28.2441 30.2344H27.087L27.0401 32.4559C27.0383 32.6162 27.0544 32.709 27.1767 32.7832C27.299 32.876 27.6757 32.8878 28.1829 32.8878H28.908L29.1697 32.0563L28.5385 32.0895L28.3286 32.1013C28.2999 32.0895 28.2726 32.0788 28.242 32.0495C28.2155 32.0243 28.1706 32.0398 28.1779 31.8795L28.1829 31.31L28.8449 31.2838C29.2023 31.2838 29.3551 31.1722 29.4855 31.066C29.6098 30.9642 29.6505 30.8471 29.6974 30.6888L29.8085 30.1847H28.8988L28.7828 30.5403Z" fill="#FEFEFE"/>
</svg>
