<svg width="50" height="50" viewBox="0 0 50 50" fill="none" xmlns="http://www.w3.org/2000/svg">
<path d="M22.1431 31.9281H18.6714L20.8429 18.0991H24.3144L22.1431 31.9281Z" fill="#2251AA"/>
<path d="M34.7297 18.4457C34.0449 18.1659 32.9588 17.8569 31.6158 17.8569C28.1874 17.8569 25.7731 19.7399 25.7583 22.432C25.7298 24.4183 27.4868 25.5215 28.8009 26.1837C30.1441 26.8605 30.6007 27.3022 30.6007 27.9054C30.587 28.8319 29.5153 29.2589 28.5158 29.2589C27.1297 29.2589 26.387 29.0387 25.2584 28.5233L24.8012 28.3024L24.3154 31.4067C25.1297 31.7887 26.6299 32.1278 28.1874 32.1426C31.8301 32.1426 34.2017 30.2888 34.2298 27.4199C34.2437 25.8457 33.3159 24.6394 31.3157 23.6537C30.1014 23.021 29.3578 22.5943 29.3578 21.9469C29.372 21.3584 29.9867 20.7555 31.3574 20.7555C32.4861 20.726 33.3153 21.0054 33.9435 21.285L34.2575 21.4319L34.7297 18.4457Z" fill="#2251AA"/>
<path d="M39.3445 27.029C39.6304 26.2345 40.7305 23.1597 40.7305 23.1597C40.7161 23.1893 41.0159 22.3506 41.1873 21.8358L41.4299 23.0274C41.4299 23.0274 42.0874 26.3376 42.2301 27.029C41.6876 27.029 40.0302 27.029 39.3445 27.029ZM43.6299 18.0991H40.9445C40.1164 18.0991 39.4872 18.349 39.1299 19.2465L33.9731 31.9279H37.6159C37.6159 31.9279 38.2156 30.2211 38.3446 29.8534C38.7442 29.8534 42.2878 29.8534 42.802 29.8534C42.9016 30.339 43.2162 31.9279 43.2162 31.9279H46.4307L43.6299 18.0991Z" fill="#2251AA"/>
<path d="M15.7709 18.0991L12.3709 27.5291L11.9994 25.6166C11.3708 23.4098 9.39941 21.0122 7.19946 19.82L10.3137 31.9134H13.985L19.4419 18.0991H15.7709Z" fill="#2251AA"/>
<path d="M9.21435 18.0991H3.62868L3.57153 18.3785C7.92871 19.5261 10.8144 22.2923 12 25.6172L10.7857 19.2616C10.5858 18.3783 9.97146 18.1283 9.21435 18.0991Z" fill="#2251AA"/>
</svg>
